<svg xmlns="http://www.w3.org/2000/svg" xmlns:xlink="http://www.w3.org/1999/xlink" xmlns:serif="http://www.serif.com/" viewBox="0 0 100 125" version="1.1" xml:space="preserve" style="" x="0px" y="0px" fill-rule="evenodd" clip-rule="evenodd" stroke-linejoin="round" stroke-miterlimit="2"><rect serif:id="57 - spiral" x="0" y="0" width="100" height="100" style="" fill="none"/><path d="M75.473,80.319c-0.683,0.683 -1.792,0.683 -2.475,-0c-0.683,-0.683 -0.683,-1.792 0,-2.475c13.676,-13.676 13.676,-35.849 0,-49.525c-12.992,-12.993 -34.057,-12.993 -47.049,-0c-12.272,12.272 -12.272,32.17 0,44.442c11.553,11.553 30.283,11.553 41.836,0c10.833,-10.833 10.833,-28.396 0,-39.229c-10.113,-10.113 -26.51,-10.113 -36.623,-0c-9.393,9.393 -9.393,24.623 0,34.016c8.674,8.674 22.736,8.674 31.41,-0c7.954,-7.954 7.954,-20.85 0,-28.803c-7.234,-7.234 -18.963,-7.234 -26.197,-0c-6.514,6.514 -6.514,17.076 0,23.59c5.795,5.794 15.19,5.794 20.984,-0c5.075,-5.075 5.075,-13.303 0,-18.377c-4.355,-4.355 -11.416,-4.355 -15.771,-0c-3.635,3.635 -3.635,9.529 0,13.164c2.916,2.915 7.643,2.915 10.558,-0c2.196,-2.196 2.196,-5.756 0,-7.951c-1.476,-1.476 -3.869,-1.476 -5.345,-0c-0.756,0.756 -0.756,1.982 0,2.738c0.037,0.036 0.096,0.036 0.132,-0c0.683,-0.683 1.792,-0.683 2.475,-0c0.683,0.683 0.683,1.792 -0,2.475c-1.403,1.403 -3.678,1.403 -5.082,-0c-2.122,-2.123 -2.123,-5.565 0,-7.688c2.843,-2.843 7.452,-2.843 10.295,-0c3.562,3.562 3.562,9.338 -0,12.901c-4.282,4.282 -11.225,4.282 -15.508,-0c-5.002,-5.002 -5.002,-13.112 0,-18.114c5.722,-5.722 14.999,-5.722 20.721,-0c6.441,6.441 6.441,16.885 -0,23.327c-7.161,7.161 -18.772,7.161 -25.934,-0c-7.881,-7.881 -7.881,-20.659 0,-28.54c8.601,-8.601 22.546,-8.601 31.147,-0c9.321,9.32 9.321,24.432 -0,33.753c-10.04,10.04 -26.319,10.04 -36.36,-0c-10.76,-10.76 -10.76,-28.206 0,-38.966c11.48,-11.48 30.093,-11.48 41.573,-0c12.2,12.2 12.2,31.979 -0,44.179c-12.92,12.919 -33.866,12.919 -46.786,-0c-13.639,-13.639 -13.639,-35.753 0,-49.392c14.359,-14.359 37.64,-14.359 51.999,-0c15.043,15.043 15.043,39.432 0,54.475Z"/><text x="0" y="115" fill="#000000" font-size="5px" font-weight="bold" font-family="'Helvetica Neue', Helvetica, Arial-Unicode, Arial, Sans-serif">Created by Zach Bogart</text><text x="0" y="120" fill="#000000" font-size="5px" font-weight="bold" font-family="'Helvetica Neue', Helvetica, Arial-Unicode, Arial, Sans-serif">from the Noun Project</text></svg>