<svg xmlns="http://www.w3.org/2000/svg" version="1.1" viewBox="-5.0 -10.0 110.0 135.0">
 <path d="m54.68 13c2.0469-0.027344 3.6094 0.86719 4.8164 1.4688 1.0586 0.52734 2.3828 0.96094 3.7617 1.4727 0.67578 0.25391 1.3477 0.46484 2.0312 0.68359 0.67188 0.21484 1.3633 0.43359 2.0312 0.6875 1.1445 0.4375 2.2461 0.83984 3.2812 0.96875 1.4219 0.17969 2.8789 0.69141 4.1055 1.2539 1.2656 0.58203 2.5352 1.3125 3.5938 2.4844 0.41406 0.45312 0.86719 0.84375 1.375 1.2539 0.49609 0.39453 1.0859 0.84375 1.6641 1.3438 1.2266 1.0625 1.9375 2.332 2.6133 3.543 0.35547 0.63281 0.73828 1.1641 1.1367 1.7109 0.39062 0.53906 0.8125 1.1133 1.168 1.7695 0.64063 1.1914 1.1758 2.457 1.5859 3.7344 0.26172 0.81641 0.39062 1.6016 0.50391 2.3242 0.11719 0.74219 0.21094 1.3984 0.39062 2.0664 0.45312 1.7031 0.70312 3.3516 0.95312 5.5156 0.22266 1.9258 0.18359 4.4336 0.0625 6.5977-0.12109 2.1562-0.32422 4.0625-0.46094 4.7891-0.28516 1.5078-0.78906 2.7891-1.1992 4.1172-0.24609 0.79297-0.56641 1.5781-0.88281 2.3203-0.32422 0.75781-0.63281 1.4688-0.89063 2.1719-0.64453 1.7461-1.6367 3.168-2.3359 4.2891-0.77344 1.2305-1.8672 2.9219-3.8906 5-1.5938 1.6367-3.3594 2.9023-4.6836 3.832-0.8125 0.57422-1.5703 1.2148-2.3516 1.8555-0.75781 0.62109-1.5547 1.25-2.3672 1.7148-0.76562 0.43359-1.4414 0.96094-2.1133 1.4961-0.63672 0.50781-1.3242 1.0742-2.0078 1.4453-1.3672 0.74219-3.1406 0.95312-4.6758 1.1836-1.1992 0.17969-2.9102 0.54297-4.2891 0.69141-1.7227 0.18359-3.3359 0.44141-5.9062 0.58984-0.92188 0.054688-2.75 0.24609-5.0117 0.29297-1.25 0.027343-5.2695 0.24609-10.957 0.14844-1.8359-0.03125-3.1914-0.28906-4.2656-0.63672-1.0664-0.34766-1.8477-0.77734-2.4453-1.0781-1.1523-0.57422-2.4336-1.2617-3.9219-2.3945-0.47266-0.35938-1.0156-0.67188-1.625-1.0078-0.58984-0.32812-1.2578-0.68359-1.8867-1.1055-0.75781-0.50391-1.4297-1.1523-1.9922-1.7109-0.60156-0.59375-1.0469-1.0469-1.4492-1.3281-0.46094-0.32813-0.90234-0.80469-1.293-1.3125-0.40234-0.51563-0.79687-1.1133-1.1602-1.7227-0.73438-1.2188-1.3867-2.543-1.7969-3.4883-0.61328-1.4102-1.0703-2.5781-1.9414-4.4688-0.66016-1.4258-0.78906-2.8516-1.0547-4.1836v-0.015625l-0.003907-0.011719c-0.3125-1.8594-0.48438-3.4766-0.80469-4.5742l-0.015625-0.058594-0.011719-0.058594c-0.066406-0.39062-0.0625-0.76172-0.0625-1.0469 0-0.55469 0.44922-1 1-1s1 0.44531 1 1c0 0.29688 0.003906 0.49609 0.03125 0.6875 0.35156 1.25 0.56641 3.0977 0.83594 4.7188 0.3125 1.582 0.37891 2.5742 0.90234 3.7031 0.87891 1.9141 1.375 3.168 1.957 4.5117 0.38281 0.875 0.99609 2.1211 1.6797 3.2539 0.33984 0.57031 0.6875 1.0938 1.0273 1.5273 0.34375 0.44531 0.63672 0.74219 0.85938 0.90234 0.57812 0.40234 1.1758 1.0195 1.707 1.543 0.56641 0.5625 1.1172 1.0859 1.6953 1.4688 0.53906 0.36328 1.1172 0.67187 1.7461 1.0195 0.60938 0.33594 1.2656 0.70703 1.8711 1.168 1.3438 1.0234 2.5039 1.6484 3.5977 2.1953 0.67188 0.33594 1.2852 0.67578 2.1719 0.96484 0.87109 0.28125 2.0234 0.51172 3.6836 0.53906 5.6367 0.097656 9.5586-0.11719 10.879-0.14844 2.2266-0.046875 3.8867-0.23047 4.9414-0.28906 2.5039-0.14844 3.9922-0.38672 5.8047-0.58203 1.3633-0.14844 2.7812-0.46484 4.207-0.67969 1.6992-0.25781 3.0391-0.43359 4.0156-0.96484 0.49219-0.26953 1.0195-0.69531 1.7188-1.2539 0.66797-0.53125 1.457-1.1523 2.3711-1.668 0.64844-0.37109 1.3242-0.89844 2.0898-1.5273 0.74609-0.60938 1.5781-1.3125 2.4648-1.9375 1.3203-0.92969 2.9492-2.1016 4.4062-3.5977 1.8789-1.9297 2.8867-3.4883 3.6211-4.6641 0.76953-1.2266 1.6055-2.4219 2.1562-3.918 0.28125-0.76172 0.62109-1.5352 0.92578-2.2617 0.31641-0.73828 0.60156-1.4453 0.81641-2.1328 0.46875-1.5039 0.88672-2.5352 1.1445-3.8906 0.10938-0.59766 0.30859-2.3984 0.42969-4.5352 0.11719-2.1328 0.14844-4.5039-0.050781-6.2578-0.24609-2.1289-0.48828-3.6641-0.90234-5.2266-0.21484-0.79297-0.32422-1.5742-0.43359-2.2734-0.10938-0.71875-0.22266-1.3711-0.43359-2.0234-0.37109-1.1641-0.85938-2.3164-1.4414-3.3945-0.28125-0.51562-0.62109-0.98438-1.0234-1.543-0.39844-0.54297-0.84766-1.1602-1.2656-1.9141-0.69141-1.2344-1.25-2.1992-2.1758-3-0.54297-0.47266-1.0547-0.85547-1.6055-1.3008-0.53906-0.43359-1.0859-0.89844-1.6055-1.4688-0.80078-0.88281-1.793-1.4766-2.9492-2.0078-1.1211-0.51562-2.3711-0.94531-3.5195-1.0898-1.3086-0.16406-2.6289-0.65625-3.7461-1.0859-0.60547-0.23047-1.2422-0.43359-1.9219-0.64844-0.67578-0.21484-1.3945-0.44141-2.1211-0.71484-1.2656-0.46875-2.7734-0.96484-3.957-1.5547-1.3359-0.66797-2.4336-1.2812-3.8984-1.2617-3.9023 0.050781-5.125 0.13672-6.1797 0.48828-1.2734 0.42578-2.3477 0.6875-3.4492 1.1445-1.2539 0.52734-2.3789 0.91016-3.4258 1.4727-1.1836 0.64062-2.5508 1.1797-3.8047 1.7812-0.74219 0.35547-1.5273 0.58203-2.1641 0.77344-0.67578 0.20703-1.1914 0.38281-1.5938 0.63672-0.69141 0.43359-1.4766 0.71094-2.1133 0.95312-0.68359 0.25391-1.2227 0.46875-1.6484 0.77344-0.625 0.44141-1.332 0.84375-1.9062 1.1992-0.60938 0.37109-1.1094 0.71094-1.4805 1.0859-1.0352 1.0352-1.8398 2.0547-2.6719 3.0586-1.0469 1.2578-1.9531 2.2344-2.3867 3.2617-0.25781 0.61719-0.57812 1.2812-0.88672 1.9219-0.31641 0.65625-0.62109 1.2891-0.87109 1.8867-0.066406 0.16016-0.16797 0.59766-0.26953 1.3477-0.097657 0.70703-0.17969 1.5977-0.24219 2.5781-0.12109 1.9609-0.15625 4.2422-0.042969 6.0859 0.13672 2.2578 0.61719 3.2148 1.1445 4.4492 0.25781 0.60547 0.61719 1.2031 1.0547 1.9062 0.42969 0.6875 0.93359 1.4688 1.4023 2.3711 0.65234 1.2539 1.2383 2.4414 1.9375 3.457 0.89062 1.293 1.6523 2.4922 2.3203 3.5547 0.69141 1.1094 1.7812 2.457 2.8047 3.707 0.83594 1.0117 2 1.9844 3.2461 3.1875 1.2383 1.1914 2.2617 1.5156 3.4922 2.1797 1.1562 0.625 2.2969 1.1914 3.4258 1.6641 0.60156 0.25391 1.2891 0.62109 1.7852 0.85547 0.55469 0.25781 1.0234 0.43359 1.4727 0.49219 0.69141 0.085937 1.3594 0.30859 1.9219 0.48437 0.59375 0.1875 1.1016 0.33984 1.6211 0.39063 1.3672 0.14453 7.7578 0.375 11.48-0.14063 0.53516-0.074218 1.0117-0.27344 1.5742-0.59375 0.28516-0.16406 0.58203-0.35156 0.92578-0.57031 0.33594-0.21484 0.71094-0.45703 1.125-0.70703 1.3945-0.83984 1.6289-0.65625 3.0039-2.0273 1.4492-1.6094 2.0078-2.1992 2.5977-2.8008 1.0859-1.1055 1.6875-1.6992 2.1992-2.3711 0.50391-0.65625 0.85547-1.2383 1.043-1.6523 0.24219-0.54297 0.41406-1.0391 0.52734-1.543 0.16016-0.72656 0.35938-1.5703 0.69141-2.3359 0.23437-0.54688 0.36328-0.96094 0.53906-1.6328 0.23828-0.89453 0.41016-1.3633 0.4375-2.957 0.019531-1.2969 0.019531-3.707-0.003906-4.9688-0.007813-0.625-0.023438-0.95312-0.039063-1.1289-0.007812-0.085938-0.011719-0.13672-0.019531-0.17188 0-0.015625-0.011719-0.097656-0.015625-0.15625-0.0625-0.64453-0.17188-2.0391-0.24609-2.9922-0.03125-0.36719-0.066406-0.66406-0.11328-0.98438-0.042969-0.31641-0.089844-0.66406-0.12891-1.0977-0.058594-0.60938-0.14453-1.1406-0.27344-1.7695-0.10547-0.51953-0.19922-0.88281-0.28906-1.1953-0.085938-0.30469-0.17578-0.61719-0.25391-0.96094-0.089844-0.39453-0.29688-0.82422-0.67578-1.5117-0.18359-0.32812-0.37891-0.58203-0.59375-0.86328-0.19922-0.25391-0.47656-0.60156-0.65234-1.0195-0.21484-0.50781-0.44141-0.97656-0.74219-1.3867-0.36328-0.49609-0.83984-1.0781-1.4492-1.6758-1.418-1.3984-1.7969-1.6562-2.0938-1.7969-0.37109-0.16797-0.76562-0.47656-0.95312-0.60547-0.25781-0.17969-0.39062-0.23438-0.47656-0.25-0.62891-0.10156-1.3047-0.33203-2.25-0.71094-0.34766-0.14062-0.81641-0.35937-1.0664-0.46484-0.32422-0.14062-0.53906-0.20703-0.69141-0.22266-1.8672-0.21484-5.1055-0.14062-5.7383-0.078124-1.043 0.10156-2.5078 0.25-3.4258 0.43359-0.73828 0.14453-1.2656 0.23828-1.8594 0.37891-0.29297 0.066406-0.58594 0.17187-0.96875 0.29687-0.35156 0.11719-0.78125 0.25-1.2227 0.30859-0.73047 0.10156-1.1641 0.23047-1.418 0.39062-0.51562 0.32031-1.0703 0.64062-1.8555 1.0547-0.76562 0.40234-1.7422 1.0508-2.2383 1.4336-0.32422 0.25-0.82812 0.58203-1.1484 0.80859-0.38281 0.27734-0.66406 0.51562-0.83984 0.73438-0.26953 0.33984-0.69531 0.67969-0.93359 0.88672-0.30859 0.26562-0.46484 0.4375-0.52734 0.5625-0.16016 0.30469-0.35938 0.58203-0.53125 0.82031-0.18359 0.25391-0.33984 0.46484-0.49219 0.70313-0.19922 0.30859-0.49609 0.62109-0.66406 0.80859-0.20703 0.23438-0.33984 0.40625-0.41797 0.57031-0.11719 0.23828-0.19141 0.45703-0.30078 0.76562-0.10938 0.30078-0.23828 0.65234-0.45312 1.0469-0.21875 0.40625-0.25391 0.71484-0.42969 1.3125-0.14062 0.47656-0.23437 0.48828-0.35156 1.1875-0.10938 0.63672-0.19141 1.7266-0.058594 3.668 0.10547 1.5312 0.20312 2.5352 0.3125 2.9297 0.14453 0.52344 0.33594 0.85938 0.57812 1.4609 0.21094 0.53125 0.64453 1.2578 1.0352 1.9297 0.34375 0.59375 0.82422 1.3711 1.1406 2.0547 0.34766 0.74219 0.46484 1.1641 0.81641 1.7227 0.16797 0.26562 0.33984 0.49609 0.53125 0.74219 0.1875 0.24219 0.40625 0.51562 0.62109 0.82422 0.44531 0.62891 0.74219 1.1562 1.293 1.6953 0.55859 0.55078 0.92578 0.83594 1.1992 1.0117 0.26562 0.16797 0.47266 0.25 0.79688 0.38281 0.87891 0.35938 1.5234 0.58984 2.293 0.76562 0.59766 0.13672 0.96484 0.26172 1.6328 0.33984 0.65234 0.078124 1.5938 0.10547 3.1602-0.015626 1.3164-0.10547 1.918-0.15625 2.3672-0.23437 0.51953-0.089844 1.0273-0.23828 1.6953-0.44141 0.77734-0.23438 1.6289-0.55469 2.2344-0.81641 0.77734-0.33594 1.3086-0.48047 2.3984-1.3516 0.88281-0.70312 1.8711-1.625 2.4531-2.1328 0.28516-0.24609 0.50781-0.41016 0.76172-0.65625 0.23828-0.23438 0.35156-0.40625 0.39062-0.51953 0.26953-0.78125 0.76172-1.668 0.78125-3.1914 0.042968-3.0547-0.042969-5.1211-0.058594-5.3594-0.019531-0.29688-0.046875-0.61719-0.10547-0.91406-0.082031-0.42188-0.23828-0.84375-0.44531-1.2539-0.15625-0.3125-0.29297-0.67188-0.41797-0.99219-0.13672-0.33984-0.29297-0.70703-0.51172-1.1328-0.34375-0.66406-0.60938-1.1211-0.88672-1.6328-0.14062-0.25781-0.32031-0.60156-0.55859-0.93359-0.25-0.34375-0.49219-0.57812-0.69922-0.68359-0.3125-0.15625-0.61328-0.35938-0.82422-0.5-0.24219-0.16016-0.42578-0.26953-0.60547-0.34766-0.23828-0.10156-0.45703-0.23047-0.625-0.33984-0.19141-0.12109-0.3125-0.20703-0.46875-0.29688-0.28125-0.16406-0.49609-0.24219-0.72266-0.24219-1.918 0-2.4492 0.12891-2.9102 0.26562-0.47266 0.14062-0.98047 0.28125-1.4805 0.44141-0.50781 0.16406-0.92188 0.32422-1.1875 0.47266-0.28516 0.16016-0.62109 0.30859-0.85938 0.42188-0.26172 0.12891-0.54297 0.27734-0.875 0.50781-0.68359 0.46875-1.1562 0.75781-1.7773 1.3086-0.41016 0.36328-0.79297 0.62891-1.0469 0.81641-0.27344 0.19922-0.39844 0.3125-0.48828 0.4375-0.34766 0.49219-0.62109 0.93359-0.73438 1.3047-0.050781 0.16797-0.19922 0.89062-0.26562 1.8008-0.066406 0.91406-0.039062 1.8594 0.16406 2.5234 0.29297 0.96094 0.625 1.7734 0.91016 2.3086 0.15625 0.30078 0.3125 0.625 0.45312 0.91406 0.15234 0.30469 0.28906 0.57812 0.42969 0.82422 0.14062 0.24609 0.26172 0.42188 0.37109 0.54297 0.058594 0.066407 0.097657 0.097657 0.10938 0.10938 0.48828 0.15234 1.082 0.25781 1.6484 0.28516 0.58984 0.027344 1.0391-0.039062 1.2812-0.14062 0.99219-0.41797 1.7383-0.80078 2.2305-1.1211 0.24609-0.16406 0.39453-0.28906 0.47656-0.375 0.007813-0.007813 0.011719-0.015625 0.019531-0.023438 0.054688-0.36328 0.14062-0.76562 0.19531-1.4141 0.054687-0.67578 0.027343-1.3047-0.13672-1.7305-0.050781-0.13281-0.18359-0.36328-0.39453-0.59766-0.21094-0.23438-0.4375-0.40234-0.63672-0.48438-0.55078-0.22266-0.99219-0.27344-1.0898-0.27344-0.55078 0-1-0.44531-1-1 0-0.55078 0.44922-1 1-1 0.39062 0 1.0859 0.11328 1.8398 0.41797 0.56641 0.23047 1.0312 0.62109 1.375 1 0.33984 0.38281 0.61719 0.81641 0.77344 1.2148 0.33203 0.86328 0.32422 1.8672 0.26172 2.6211-0.058594 0.70703-0.21094 1.5195-0.22266 1.6133-0.058594 0.44531-0.30469 0.78906-0.52344 1.0195-0.22656 0.24609-0.51953 0.47266-0.83984 0.68359-0.63672 0.41797-1.5117 0.85547-2.5547 1.293-0.64062 0.26953-1.4336 0.32812-2.1484 0.29297-0.73438-0.035156-1.5078-0.16797-2.1719-0.37891-0.43359-0.13672-0.75781-0.42188-0.98828-0.68359-0.23828-0.26562-0.44141-0.57812-0.61328-0.87891s-0.33594-0.62891-0.48438-0.92969c-0.15234-0.31641-0.29297-0.60156-0.42969-0.86719-0.35938-0.67578-0.73438-1.6172-1.0508-2.6562-0.31641-1.0273-0.32031-2.2734-0.24609-3.2578 0.070312-0.98828 0.23438-1.875 0.34375-2.2383 0.21875-0.71094 0.67188-1.3867 1.0156-1.875 0.28906-0.40234 0.64062-0.67578 0.93359-0.89453 0.3125-0.23047 0.58594-0.41406 0.91016-0.69922 0.73438-0.65625 1.3516-1.0391 1.9688-1.4609 0.4375-0.30078 0.80859-0.5 1.1328-0.65625 0.34766-0.17188 0.53906-0.24609 0.76172-0.37109 0.44922-0.25 1.0195-0.46094 1.5469-0.62891 0.53125-0.17188 1.0977-0.32812 1.5273-0.45703 0.71484-0.21094 1.4531-0.34766 3.4766-0.34766 0.73438 0 1.3125 0.26953 1.7344 0.51562 0.19531 0.11328 0.39844 0.25391 0.53125 0.33594 0.15234 0.097656 0.25 0.15234 0.32812 0.18359 0.36328 0.15625 0.67969 0.35938 0.92578 0.51953 0.26953 0.17578 0.44141 0.29688 0.62109 0.38281 0.63672 0.32031 1.1094 0.85938 1.4297 1.3047 0.32422 0.45703 0.56641 0.91797 0.69141 1.1523 0.23828 0.43359 0.55469 0.98828 0.90625 1.6641 0.26172 0.50781 0.44141 0.94141 0.58984 1.3086 0.15234 0.38281 0.24609 0.625 0.35547 0.84375 0.26172 0.52734 0.48828 1.1211 0.61328 1.7617 0.085937 0.42578 0.11719 0.84766 0.14062 1.1641 0.019531 0.30469 0.10156 2.4297 0.0625 5.5195-0.027344 1.9414-0.70703 3.2812-0.89062 3.8125-0.19141 0.55859-0.57422 1-0.88672 1.3047-0.30078 0.29297-0.68359 0.59766-0.84766 0.73438-0.48438 0.42188-1.5977 1.4531-2.5156 2.1875-1.332 1.0625-2.125 1.3047-2.8516 1.6211-0.67188 0.28906-1.5938 0.63672-2.4531 0.89844-0.64453 0.19141-1.2695 0.38281-1.9297 0.49609-0.5625 0.09375-1.2695 0.15625-2.5508 0.25391-1.6484 0.12891-2.7266 0.10938-3.5508 0.011719-0.8125-0.097657-1.3867-0.27344-1.8477-0.37891-0.91797-0.21094-1.6797-0.48828-2.5977-0.86328-0.3125-0.125-0.67578-0.26562-1.1133-0.54688-0.43359-0.27344-0.91406-0.66406-1.5312-1.2695-0.72266-0.71094-1.1953-1.5039-1.5234-1.9727-0.18359-0.26172-0.36328-0.48438-0.57031-0.75391-0.20313-0.26172-0.42188-0.55078-0.64063-0.89844-0.4375-0.69141-0.71094-1.4648-0.9375-1.9453-0.26562-0.57422-0.66797-1.2227-1.0586-1.8945-0.34375-0.59375-0.88281-1.4883-1.1641-2.1875-0.15234-0.37891-0.46484-1.0156-0.64453-1.6758-0.17578-0.63672-0.28125-1.8828-0.37891-3.3281-0.14062-2.0273-0.066407-3.293 0.078125-4.1406 0.13672-0.78516 0.39844-1.3906 0.40625-1.4062 0.097656-0.34766 0.23438-1.0469 0.58594-1.6992 0.14062-0.26562 0.23438-0.50391 0.33203-0.77734 0.097657-0.26563 0.21094-0.60156 0.37891-0.95703 0.21094-0.42969 0.50391-0.77734 0.72656-1.0273 0.25781-0.29297 0.38672-0.42578 0.47656-0.5625 0.19141-0.30078 0.39844-0.57812 0.55859-0.79687 0.16797-0.23438 0.28906-0.41016 0.375-0.57422 0.25781-0.5 0.69141-0.89062 0.98828-1.1484 0.37109-0.32031 0.5625-0.47266 0.67969-0.62109 0.35547-0.44531 0.83594-0.82031 1.2422-1.1094 0.46875-0.33594 0.77734-0.53125 1.0898-0.76953 0.57812-0.44922 1.6523-1.1602 2.5273-1.6211 0.75391-0.39844 1.2656-0.69141 1.7305-0.98047 0.63281-0.39844 1.4258-0.57031 2.2031-0.67578 0.25-0.035157 0.52344-0.11328 0.875-0.22656 0.32031-0.10547 0.73047-0.25 1.1328-0.34766 0.63672-0.14844 1.2383-0.25391 1.9258-0.39062 1.0352-0.20703 2.6094-0.36328 3.6211-0.46484 0.75391-0.074219 4.1367-0.14844 6.1602 0.082031 0.45703 0.054688 0.89062 0.21875 1.2461 0.37109 0.42188 0.17969 0.66016 0.30078 1.0273 0.44531 0.93359 0.375 1.4336 0.53516 1.8242 0.59766 0.55859 0.089844 1.0078 0.375 1.3008 0.57812 0.35938 0.25 0.48828 0.36328 0.65234 0.4375 0.66406 0.30859 1.2773 0.82422 2.6602 2.1875 0.69531 0.68359 1.2422 1.3477 1.6562 1.918 0.4375 0.59766 0.73828 1.2344 0.97266 1.7852 0.054688 0.13672 0.15625 0.27734 0.38672 0.57422 0.21094 0.27734 0.5 0.64063 0.76562 1.125 0.36719 0.66406 0.71875 1.3281 0.875 2.0391 0.0625 0.27734 0.13281 0.50781 0.23438 0.85938 0.09375 0.34375 0.20312 0.75781 0.32031 1.3359 0.14062 0.68359 0.23438 1.2852 0.30078 1.9805 0.039063 0.38672 0.078125 0.69141 0.125 1.0195 0.042969 0.32422 0.089844 0.66797 0.12109 1.0938 0.074219 0.96484 0.18359 2.3359 0.24219 2.957 0 0 0 0.003906 0.003906 0.015625 0 0.011718 0.003907 0.042968 0.007813 0.074218 0.011719 0.066407 0.019531 0.15234 0.03125 0.27344 0.015625 0.23828 0.035156 0.60938 0.042969 1.2539 0.023437 1.2812 0.023437 3.7109 0.003906 5.0273-0.03125 1.8438-0.25391 2.5039-0.50391 3.4414-0.1875 0.71484-0.34766 1.2383-0.63672 1.9141-0.25 0.57031-0.41016 1.2383-0.57422 1.9766-0.14844 0.66016-0.37109 1.2852-0.65625 1.9258-0.26953 0.60156-0.71875 1.3203-1.2773 2.0508-0.60547 0.79688-1.3242 1.5039-2.3594 2.5547-0.56641 0.57812-1.1055 1.1484-2.5664 2.7656-0.003906 0.007813-0.011719 0.011719-0.019531 0.019532-0.003906 0.003906-0.007812 0.011718-0.015625 0.019531-1.6133 1.6133-2.3555 1.7109-3.3984 2.3359-0.38672 0.23438-0.73438 0.46094-1.0781 0.67969-0.33984 0.21484-0.67578 0.42969-1.0117 0.625-0.68359 0.39062-1.4102 0.71094-2.293 0.83594-3.9336 0.54297-10.492 0.30469-11.961 0.15234-0.74609-0.078125-1.4336-0.29297-2.0156-0.47656-0.60937-0.19141-1.0938-0.34766-1.5703-0.40625-0.76562-0.097656-1.4688-0.38281-2.0742-0.66797-0.66797-0.31641-1.1328-0.57812-1.7031-0.81641-1.2148-0.50781-2.418-1.1094-3.6055-1.75-0.97656-0.52734-2.4336-1.0586-3.9297-2.5039-1.1016-1.0586-2.4727-2.2227-3.4023-3.3555-1.0078-1.2305-2.1836-2.6758-2.957-3.9141-0.66016-1.0547-1.4062-2.2266-2.2695-3.4805-0.78906-1.1445-1.4492-2.4805-2.0664-3.6719-0.42578-0.8125-0.87891-1.5195-1.3242-2.2344-0.4375-0.69531-0.875-1.4141-1.1992-2.1836-0.53906-1.2656-1.1445-2.4883-1.3008-5.1094-0.12109-1.9492-0.082031-4.3125 0.042969-6.3359 0.066406-1.0117 0.15234-1.9492 0.25781-2.7188 0.097656-0.73047 0.22656-1.418 0.40625-1.8477 0.27344-0.65625 0.60156-1.3398 0.91406-1.9844 0.31641-0.65625 0.60938-1.2656 0.84375-1.8242 0.58203-1.3906 1.7852-2.6797 2.6914-3.7695 0.79688-0.95703 1.6797-2.0781 2.793-3.1953 0.55469-0.55469 1.2266-0.99609 1.8516-1.3789 0.65625-0.40234 1.2461-0.73438 1.793-1.125 0.67188-0.47266 1.4531-0.76953 2.1055-1.0156 0.69922-0.26172 1.2734-0.46875 1.7539-0.77344 0.66016-0.41016 1.4141-0.65234 2.0703-0.85156 0.69531-0.21484 1.3086-0.39062 1.8867-0.66797 1.4805-0.71094 2.5547-1.1055 3.7188-1.7344 1.1602-0.62891 2.5117-1.1016 3.6055-1.5586 1.1797-0.49609 2.5117-0.83984 3.5859-1.1992 1.4141-0.47266 2.9922-0.53906 6.7852-0.58984z"/>
<text x="0.0" y="117.5" font-size="5.0" font-weight="bold" font-family="Arbeit Regular, Helvetica, Arial-Unicode, Arial, Sans-serif" fill="#000000">Created by EsyaAm</text><text x="0.0" y="122.5" font-size="5.0" font-weight="bold" font-family="Arbeit Regular, Helvetica, Arial-Unicode, Arial, Sans-serif" fill="#000000">from Noun Project</text></svg>